<?xml version="1.0" encoding="UTF-8" standalone="no"?>
<!-- Created with Inkscape (http://www.inkscape.org/) -->

<svg
   xmlns:dc="http://purl.org/dc/elements/1.1/"
   xmlns:cc="http://creativecommons.org/ns#"
   xmlns:rdf="http://www.w3.org/1999/02/22-rdf-syntax-ns#"
   xmlns:svg="http://www.w3.org/2000/svg"
   xmlns="http://www.w3.org/2000/svg"
   xmlns:sodipodi="http://sodipodi.sourceforge.net/DTD/sodipodi-0.dtd"
   xmlns:inkscape="http://www.inkscape.org/namespaces/inkscape"
   width="155.16881mm"
   height="155.16881mm"
   viewBox="0 0 155.16881 155.16881"
   version="1.1"
   id="svg8"
   inkscape:version="0.92.4 (5da689c313, 2019-01-14)"
   sodipodi:docname="icon.svg">
  <defs
     id="defs2" />
  <sodipodi:namedview
     id="base"
     pagecolor="#ffffff"
     bordercolor="#666666"
     borderopacity="1.0"
     inkscape:pageopacity="0.0"
     inkscape:pageshadow="2"
     inkscape:zoom="0.98994949"
     inkscape:cx="49.344228"
     inkscape:cy="160.57297"
     inkscape:document-units="mm"
     inkscape:current-layer="text3745"
     showgrid="false"
     inkscape:window-width="1920"
     inkscape:window-height="1057"
     inkscape:window-x="1912"
     inkscape:window-y="-8"
     inkscape:window-maximized="1" />
  <metadata
     id="metadata5">
    <rdf:RDF>
      <cc:Work
         rdf:about="">
        <dc:format>image/svg+xml</dc:format>
        <dc:type
           rdf:resource="http://purl.org/dc/dcmitype/StillImage" />
        <dc:title />
      </cc:Work>
    </rdf:RDF>
  </metadata>
  <g
     inkscape:label="Layer 1"
     inkscape:groupmode="layer"
     id="layer1"
     transform="translate(-25.485081,29.032773)">
    <g
       id="g4557"
       transform="matrix(0.53235487,0,0,0.53235487,11.917974,-13.577033)">
      <path
         inkscape:connector-curvature="0"
         id="path4504"
         transform="scale(0.26458333)"
         d="m 647.14258,-57.232422 c -274.72614,0 -498.32227,223.703512 -498.32227,498.324222 0,274.6207 223.70155,498.32226 498.32227,498.32226 274.6207,0 498.32422,-223.70156 498.32422,-498.32226 0,-274.62071 -223.70352,-498.324222 -498.32422,-498.324222 z m -0.74219,44.277344 a 32.785812,32.785812 0 0 1 0.004,0 32.680391,32.785812 0 0 1 31.83789,32.785156 32.786135,32.786135 0 0 1 -65.57227,0 32.785812,32.785812 0 0 1 33.73047,-32.785156 z m -74.10547,53.974609 50.4961,52.921875 c 11.38541,11.912534 30.25542,12.440064 42.16796,0.949219 l 56.50586,-53.871094 a 403.44469,403.44469 0 0 1 66.1543,18.777344 c 1.97576,0.407587 3.93673,0.970989 5.87695,1.730469 13.99934,5.479892 27.61358,11.724081 40.80079,18.671875 a 403.44469,403.44469 0 0 1 2.36523,1.269531 c 10.36827,5.551273 20.46754,11.537743 30.26953,17.943359 a 403.44469,403.44469 0 0 1 6.39844,4.269531 c 8.32464,5.66907 16.42445,11.64272 24.28711,17.90234 a 403.44469,403.44469 0 0 1 9.8125,8.05664 c 6.45209,5.47512 12.72445,11.15359 18.81836,17.01758 a 403.44469,403.44469 0 0 1 11.94922,11.9668 c 5.13237,5.3678 10.11852,10.87734 14.95117,16.52148 a 403.44469,403.44469 0 0 1 12.51172,15.37696 c 3.37107,4.35061 6.66483,8.76435 9.85937,13.2539 0.23859,0.33532 0.45279,0.6794 0.67383,1.02149 a 403.44469,403.44469 0 0 1 21.47266,32.93555 l -38.68946,87.28906 c -6.6415,15.07515 0.21195,32.78628 15.18164,39.5332 l 74.4258,32.99609 a 403.44469,403.44469 0 0 1 0.8437,69.99805 h -0.5 c -5.7455,78.10094 -33.7008,150.02515 -77.59567,209.47266 h 0.7168 a 403.44469,403.44469 0 0 1 -37.31836,43.2207 l -69.26172,-14.86328 c -16.12936,-3.47887 -32.04848,6.85115 -35.52734,22.98047 l -16.44532,76.74805 a 403.44469,403.44469 0 0 1 -36.45312,14.36328 c -0.0902,0.0369 -0.18261,0.0712 -0.27344,0.10742 a 403.44469,403.44469 0 0 1 -1.01367,0.375 c -0.24074,0.087 -0.47392,0.18338 -0.71875,0.26562 -40.39438,13.56934 -83.64335,20.92188 -128.60938,20.92188 -40.73374,0 -80.05693,-6.03481 -117.12695,-17.25781 -2.64112,-0.79961 -5.08556,-1.88567 -7.35742,-3.22071 A 403.44469,403.44469 0 0 1 477.09961,803.52734 L 460.6543,726.78125 c -3.47891,-16.12936 -19.29252,-26.46129 -35.42188,-22.98242 l -67.78515,14.54883 a 403.44469,403.44469 0 0 1 -21.21289,-24.19141 c -1.98,-1.33851 -3.76227,-2.94462 -5.30469,-4.875 -55.15082,-69.02256 -88.12305,-156.54162 -88.12305,-251.76172 0,-2.92892 0.34165,-5.66443 0.98047,-8.23242 a 403.44469,403.44469 0 0 1 2.23047,-35.21289 l 70.63086,-31.41602 c 15.07515,-6.74692 21.92856,-24.35258 15.18164,-39.42773 l -14.54883,-32.78516 h 0.26563 c -13.3252,-23.74604 -27.38086,-44.84375 -27.38086,-44.84375 10.41967,-18.87574 21.81773,-35.1234 34.7871,-52.17773 51.04777,-67.12628 122.64108,-117.779826 205.4043,-142.587892 2.17055,-0.650615 4.32668,-0.947976 6.47266,-0.953126 a 403.44469,403.44469 0 0 1 35.46484,-8.863281 z M 255.5,283.69727 a 32.785812,32.785812 0 0 1 0.006,0 32.785812,32.785812 0 0 1 31.83594,32.78711 32.785812,32.785812 0 0 1 -65.57032,0 A 32.785812,32.785812 0 0 1 255.5,283.69727 Z m 781.6934,1.47656 a 32.785812,32.785812 0 0 1 0.01,0 32.785812,32.785812 0 0 1 31.8379,32.78515 32.78615,32.78615 0 0 1 -65.5723,0 32.785812,32.785812 0 0 1 33.7286,-32.78515 z M 403.61523,745.33398 a 32.785812,32.785812 0 0 1 0.006,0.002 32.785812,32.785812 0 0 1 31.83789,32.78515 32.78613,32.78613 0 0 1 -65.57226,0 32.785812,32.785812 0 0 1 33.72851,-32.78711 z m 485.46289,1.47657 a 32.785812,32.785812 0 0 1 0.006,0 32.785812,32.785812 0 0 1 31.83594,32.78711 32.78613,32.78613 0 0 1 -65.57226,0 32.785812,32.785812 0 0 1 33.73046,-32.78711 z"
         style="stroke-width:10.54206085" />
      <path
         id="path4506"
         d="M 295.70761,116.70536 A 124.4844,124.4844 0 0 1 171.22322,241.18976 124.4844,124.4844 0 0 1 46.738819,116.70536 124.4844,124.4844 0 0 1 171.22322,-7.779039 124.4844,124.4844 0 0 1 295.70761,116.70536 Z m -2.34297,-12.02169 19.41321,12.02169 -19.41321,12.02168 16.67974,15.59193 -21.36569,8.00516 13.33264,18.54854 -22.56507,3.68181 9.48347,20.80784 -22.84399,-0.80889 5.2438,22.25825 -22.25825,-5.2438 0.80888,22.84399 -20.80783,-9.48346 -3.68181,22.56506 -18.54854,-13.33263 -8.00516,21.36568 -15.59193,-16.67974 -12.02168,19.41321 -12.02169,-19.41321 -15.59193,16.67974 -8.00515,-21.36568 -18.54854,13.33263 -3.68182,-22.56506 -20.807831,9.48346 0.808884,-22.84399 -22.258245,5.2438 5.243797,-22.25825 -22.843989,0.80889 9.483463,-20.80784 L 40.435106,170.87267 53.767739,152.32413 32.402055,144.31897 49.081793,128.72704 29.668586,116.70536 49.081793,104.68367 32.402055,89.091745 53.767739,81.086587 40.435106,62.538049 63.000169,58.856234 53.516706,38.048401 l 22.843989,0.808884 -5.243797,-22.258246 22.258245,5.243797 -0.808884,-22.8439882 20.807831,9.4834629 3.68182,-22.5650637 18.54854,13.33263359 8.00515,-21.36568459 15.59193,16.6797382 12.02169,-19.4132062 12.02168,19.4132062 15.59193,-16.6797382 8.00516,21.36568459 18.54854,-13.33263359 3.68181,22.5650637 20.80783,-9.4834629 -0.80888,22.8439882 22.25825,-5.243797 -5.2438,22.258246 22.84399,-0.808884 -9.48347,20.807833 22.56507,3.681815 -13.33264,18.548538 21.36569,8.005158 z"
         inkscape:connector-curvature="0"
         style="fill-rule:evenodd;stroke:#000000;stroke-width:8.36776161;stroke-linecap:round;stroke-linejoin:round" />
    </g>
    <g
       aria-label="D"
       transform="scale(0.96571233,1.0355051)"
       style="font-style:normal;font-variant:normal;font-weight:800;font-stretch:normal;font-size:129.12113953px;line-height:1.25;font-family:'Rockwell Extra Bold';-inkscape-font-specification:'Rockwell Extra Bold, Ultra-Bold';font-variant-ligatures:normal;font-variant-caps:normal;font-variant-numeric:normal;font-feature-settings:normal;text-align:center;letter-spacing:0px;word-spacing:0px;writing-mode:lr-tb;text-anchor:middle;fill:#000000;fill-opacity:1;stroke:none;stroke-width:20.45111084"
       id="text3745">
      <path
         d="m 100.82664,21.389301 v 45.709387 h 3.21542 q 11.97901,0 15.57272,-6.36779 3.53065,-6.367791 3.53065,-16.014048 0,-5.800364 -1.51314,-11.474632 -1.57618,-5.674269 -5.54817,-8.763593 -3.90894,-3.089324 -13.99653,-3.089324 z m 0,66.704182 H 60.034954 V 67.098688 h 6.87217 V 21.389301 h -6.87217 V 0.39450588 h 41.989586 q 14.37482,0 23.45365,1.76532812 9.14187,1.765328 17.21195,7.2504546 8.00702,5.5481744 12.60948,15.0052884 2.26971,4.539415 3.46761,9.709305 1.1979,5.169889 1.1979,10.844158 0,11.411585 -4.85465,20.805652 -4.7916,9.33102 -12.16815,14.311767 -7.18741,4.980747 -15.76186,6.493886 -8.51141,1.513138 -26.35383,1.513138 z"
         style="font-style:normal;font-variant:normal;font-weight:800;font-stretch:normal;font-size:129.12113953px;font-family:'Rockwell Extra Bold';-inkscape-font-specification:'Rockwell Extra Bold, Ultra-Bold';font-variant-ligatures:normal;font-variant-caps:normal;font-variant-numeric:normal;font-feature-settings:normal;text-align:center;writing-mode:lr-tb;text-anchor:middle;stroke-width:20.45111084"
         id="path64" />
    </g>
    <path
       style="stroke-width:0.42754886"
       d="m 48.302856,6.5692329 h 16.31457 V 22.650108 h -16.31457 z"
       id="rect34" />
    <path
       style="stroke-width:0.45192531"
       d="M 44.419033,68.951469 H 64.669926 V 83.425946 H 44.419033 Z"
       id="rect34-8" />
  </g>
</svg>
